<?xml version="1.0" encoding="UTF-8" standalone="no"?>
<!-- Created with Inkscape (http://www.inkscape.org/) -->

<svg
   width="600"
   height="1000"
   viewBox="0 0 158.74999 264.58333"
   version="1.1"
   id="svg1"
   xml:space="preserve"
   xmlns="http://www.w3.org/2000/svg"
   xmlns:svg="http://www.w3.org/2000/svg"><defs
     id="defs1" /><g
     id="layer1"><g
       style="fill:#ffffff;stroke:#fe817b;stroke-width:0.428479;stroke-dasharray:none;stroke-opacity:1"
       id="g2"
       transform="matrix(6.0738335,0,0,6.0738335,-1.951772,40.218862)"><g
         id="SVGRepo_bgCarrier"
         stroke-width="0"
         style="stroke:#fe817b;stroke-width:0.428479;stroke-dasharray:none;stroke-opacity:1" /><g
         id="SVGRepo_tracerCarrier"
         stroke-linecap="round"
         stroke-linejoin="round"
         style="stroke:#fe817b;stroke-width:0.428479;stroke-dasharray:none;stroke-opacity:1" /><g
         id="SVGRepo_iconCarrier"
         transform="matrix(-0.98265874,0.92394155,-0.98265874,-0.92394155,49.150241,15.234516)"
         style="stroke:#fe817b;stroke-width:0.317974;stroke-dasharray:none;stroke-opacity:1"> <g
   id="g1"
   style="stroke:#fe817b;stroke-width:0.317974;stroke-dasharray:none;stroke-opacity:1"> <path
   d="M 35.99,12.641 12.64,35.989 8.503,31.854 c 0.292,-0.15 0.569,-0.334 0.813,-0.576 1.272,-1.273 1.273,-3.334 10e-4,-4.605 -1.271,-1.271 -3.333,-1.271 -4.604,0 -0.244,0.244 -0.426,0.523 -0.576,0.814 L 0,23.353 23.35,0.001 27.487,4.138 c -0.291,0.15 -0.57,0.334 -0.814,0.578 -1.271,1.271 -1.271,3.332 0,4.604 1.271,1.271 3.332,1.271 4.604,0 0.246,-0.244 0.43,-0.525 0.578,-0.816 z"
   id="path1"
   style="stroke:#fe817b;stroke-width:0.317974;stroke-dasharray:none;stroke-opacity:1" /> </g> </g></g></g></svg>
